<?xml version="1.0" encoding="utf-8"?>
<!-- Generator: Adobe Illustrator 21.1.0, SVG Export Plug-In . SVG Version: 6.00 Build 0)  -->
<svg version="1.1" id="图层_1" xmlns="http://www.w3.org/2000/svg" xmlns:xlink="http://www.w3.org/1999/xlink" x="0px" y="0px"
	 viewBox="0 0 200 200" style="enable-background:new 0 0 200 200;" xml:space="preserve">
<style type="text/css">
	.st0{fill:#FEE1B9;}
	.st1{fill:#FFD9AC;}
	.st2{fill:#D0D4D7;}
	.st3{fill:#B9C7D0;}
	.st4{fill:#FFFFFF;}
	.st5{fill:#585A66;}
</style>
<path class="st0" d="M84.3,119.6v34.9l15.4,45.2l15.8-45.2v-34.9H84.3z"/>
<path class="st1" d="M99.7,119.6v80.2l15.8-45.2v-34.9H99.7z"/>
<path class="st0" d="M57.8,88.6c-0.5-5.2,2.3-9.9,6.3-10.4c4-0.5,7.7,3.2,8.3,8.5c0.5,5.2-2.3,9.9-6.3,10.4
	C62.1,97.6,58.4,93.8,57.8,88.6"/>
<path class="st1" d="M133.6,97.1c-4-0.4-6.7-5-6.1-10.3c0.7-5.2,4.5-9.1,8.5-8.7c4,0.4,6.7,5,6,10.3
	C141.4,93.7,137.6,97.5,133.6,97.1"/>
<path class="st0" d="M100,44.8c0,0-33.2,1.4-33.2,19.1v36c0,7,11.3,26.9,21.4,27.7c5.1,0.4,11.8,1,11.8,1s6.7-0.6,11.8-1
	c10.2-0.8,21.3-20.7,21.3-27.7v-35C133,47.2,100,44.8,100,44.8"/>
<path class="st0" d="M100,44.8c0,0-33.2,1.4-33.2,19.1v36c0,7,11.3,26.9,21.4,27.7c5.1,0.4,11.8,1,11.8,1s6.7-0.6,11.8-1
	c10.2-0.8,21.3-20.7,21.3-27.7v-35C133,47.2,100,44.8,100,44.8"/>
<path class="st1" d="M133,64.9v35c0,7-11.3,26.9-21.4,27.7c-5.1,0.4-11.8,1-11.8,1V44.8C99.9,44.8,133,47.2,133,64.9"/>
<path class="st0" d="M100,199.8v-55.7c0,0-11.9-2.9-14.5-12.6c-1.3-4.6-1.2-3.6-1.2,1.2c0,14.3-33.7,8.2-42.8,19.2
	c-7.2,9.9-12.2,47.9-12.2,47.9H100z"/>
<path class="st1" d="M99.9,199.8v-58.6c0,0,11.3-0.2,13.5-5.7c0.8-2,2.1-7.4,2.1-2.7c0,14.3,33.8,8,42.9,19.1
	c7.2,9.9,12.2,47.9,12.2,47.9H99.9z"/>
<path class="st2" d="M80.1,139.3c0,0-32.7,4.3-40,13.4c-5.9,7.3-9.9,38.8-11.8,47.4H100v-55.4L80.1,139.3L80.1,139.3z"/>
<path class="st3" d="M119.8,139.3c0,0,32.9,4.4,40.1,13.5c5.9,7.3,9.7,38.7,11.6,47.3H100v-55.4L119.8,139.3L119.8,139.3z"/>
<path class="st2" d="M99.9,181.6l0.1-39l-20.2-4.1L100,200"/>
<path class="st2" d="M100,142.6l16.2-8.2l8.4,4.9l-13.6,19.5L100,142.6z"/>
<path class="st4" d="M100,142.6l-16.2-8.2l-8.4,4.9l16.5,19.5L100,142.6z"/>
<path class="st5" d="M63.6,85.3h3.2L71,55.8c0,0-9.6-3.8-11.6,7.8C57.4,75.2,63.6,85.3,63.6,85.3 M134.6,85.3h-3.2l-4.2-29.5
	c0,0,9.6-3.8,11.6,7.8C140.8,75.2,134.6,85.3,134.6,85.3"/>
<path class="st5" d="M67.3,58.8c0,0,13.5,10.5,32.2,10.5c18.7,0,36.4-5.8,44.4-21.5c-0.4,0.1-14.3-2.4-31.7-15.7
	C90.3,15.3,49.2,40.2,67.3,58.8"/>
</svg>
